<svg height="512" viewBox="0 0 512 512" width="512" xmlns="http://www.w3.org/2000/svg"><g id="Filled_outline" data-name="Filled outline"><rect fill="#4d5e78" height="96" rx="16" width="32" x="176" y="328"/><rect fill="#4d5e78" height="96" rx="16" width="32" x="400" y="328"/><path d="m208 360h192v32h-192z" fill="#b0b0ae"/><path d="m416 120-24 304h-176l-11.82-149.74-12.18-154.26z" fill="#348fd9"/><path d="m272 320v104h-56l-11.82-149.74a103.162 103.162 0 0 1 19.82-2.26 48 48 0 0 1 48 48z" fill="#3086cd"/><path d="m368 120-24 304h48l24-304z" fill="#3086cd"/><path d="m168 88h272v32h-272z" fill="#348fd9"/><path d="m424 88h-240l8-32h224z" fill="#3086cd"/><path d="m416 56h-32l8 32h32z" fill="#2d7dbf"/><path d="m152 258.745v-98.745h-48v98.745a109.256 109.256 0 0 0 -32 77.255v152h112v-152a109.256 109.256 0 0 0 -32-77.255z" fill="#7eb457"/><path d="m72 453.977v34.023h112v-152a109.029 109.029 0 0 0 -3.745-27.886c-32.825 81.472-78.111 124.664-108.255 145.863z" fill="#77ad50"/><circle cx="128" cy="160" fill="#5f943a" r="24"/><path d="m160 320h96v168h-96z" fill="#f35244"/><path d="m160 473.4v14.6h96v-144c-30.132 65.968-67.063 101.227-96 129.4z" fill="#ea4a3b"/><circle cx="208" cy="320" fill="#e0e0de" r="48"/><path d="m234.234 318.609a13.868 13.868 0 0 0 -11.867-6.609h-14.367a8 8 0 0 0 -5.656 13.656l10.164 10.164a13.982 13.982 0 0 0 9.875 4.086 14.275 14.275 0 0 0 2.219-.179 14.01 14.01 0 0 0 10.25-7.539 13.865 13.865 0 0 0 -.618-13.579z" fill="#a3a3a1"/><path d="m414.105 144 1.895-24h-224l1.895 24z" fill="#3086cd"/><path d="m344 16h-80a16.021 16.021 0 0 0 -16 16v16h-56a8 8 0 0 0 -7.758 6.062l-6.484 25.938h-9.758a8 8 0 0 0 -8 8v32a8 8 0 0 0 8 8h16.6l9.512 120.625 15.953-1.25-9.409-119.375h206.688l-22.735 288h-104.609v16h112a7.925 7.925 0 0 0 7.729-6.466 23.916 23.916 0 0 0 40.271-17.534v-64a24.027 24.027 0 0 0 -24-24 23.684 23.684 0 0 0 -7.876 1.436l15.276-193.436h16.6a8 8 0 0 0 8-8v-32a8 8 0 0 0 -8-8h-9.758l-6.484-25.938a8 8 0 0 0 -7.758-6.062h-56v-16a16.021 16.021 0 0 0 -16-16zm72 320a8.005 8.005 0 0 1 8 8v64a8 8 0 0 1 -16 0v-64a8.005 8.005 0 0 1 8-8zm-152-304h80v16h-80zm168 80h-256v-16h256zm-18.25-32h-219.5l4-16h211.5z"/><path d="m241.062 259.984a8 8 0 0 0 6.938 4.016h40v-16h-26.07l16.929-29.023a8.007 8.007 0 0 0 -9-11.758l-19.8 5.343 4.172 15.454.985-.266-14.133 24.219a8.007 8.007 0 0 0 -.021 8.015z"/><path d="m323.062 176.805-12.148-20.836a8.025 8.025 0 0 0 -6.859-3.969 7.4 7.4 0 0 0 -6.907 3.875l-21.875 36.305 13.7 8.25 14.914-24.742 17.679 30.32a8.017 8.017 0 0 0 6.914 3.969 7.8 7.8 0 0 0 1.688-.18 7.981 7.981 0 0 0 6.266-6.992l2.64-25.36-15.906-1.656z"/><path d="m366.953 259.961a7.994 7.994 0 0 0 -.07-8.039l-21.875-36.922-13.766 8.156 14.719 24.844h-34.961a8 8 0 0 0 -5.75 13.562l15.461 16 11.5-11.124-2.359-2.438h30.148a8 8 0 0 0 6.953-4.039z"/><path d="m160 160h-.277a31.827 31.827 0 0 0 -63.446 0h-.277v95.469a117.268 117.268 0 0 0 -32 80.531v152a8 8 0 0 0 8 8h184a8 8 0 0 0 8-8v-160a7.694 7.694 0 0 0 -.363-1.8 55.84 55.84 0 0 0 -55.637-62.2 55.623 55.623 0 0 0 -33.19 11 115.765 115.765 0 0 0 -14.81-19.523zm-32-13.258a16 16 0 1 1 -16 16 16.021 16.021 0 0 1 16-16zm120 333.258h-80v-120.886a55.82 55.82 0 0 0 80 0zm0-160a40 40 0 1 1 -40-40 40.047 40.047 0 0 1 40 40zm-84.929-33.283a55.626 55.626 0 0 0 -11.071 33.283 56.4 56.4 0 0 0 .363 6.2 7.686 7.686 0 0 0 -.363 1.8v152h-72v-144a101.272 101.272 0 0 1 29.656-71.625 7.994 7.994 0 0 0 2.344-5.656v-68.427a30.989 30.989 0 0 0 32 0v68.427a8.008 8.008 0 0 0 2.344 5.656 99.886 99.886 0 0 1 16.727 22.342z"/><path d="m212.508 335.82a13.982 13.982 0 0 0 9.875 4.086 14.275 14.275 0 0 0 2.219-.179 14.01 14.01 0 0 0 10.25-7.539 13.952 13.952 0 0 0 -12.485-20.188h-14.367a8 8 0 0 0 -5.656 13.656z"/><path d="m96 312h16v16h-16z"/><path d="m96 344h16v56h-16z"/><path d="m184 392h16v16h-16z"/><path d="m184 424h16v40h-16z"/></g></svg>