<svg xmlns="http://www.w3.org/2000/svg" viewBox="0 0 207.68 237.04"><defs><style>.cls-1,.cls-25,.cls-3{fill:none;stroke-linejoin:round;}.cls-1,.cls-3{stroke:#172752;}.cls-1{stroke-width:5.83px;}.cls-2{fill:#bddce8;}.cls-3{stroke-width:5px;}.cls-4{font-size:15.78px;}.cls-14,.cls-19,.cls-4{fill:#172752;}.cls-14,.cls-4{font-family:Gotham-Book, Gotham Book;}.cls-5{letter-spacing:-0.04em;}.cls-6{letter-spacing:-0.04em;}.cls-7{letter-spacing:-0.04em;}.cls-8{letter-spacing:-0.04em;}.cls-9{letter-spacing:-0.04em;}.cls-10{letter-spacing:-0.05em;}.cls-11{letter-spacing:-0.04em;}.cls-12{letter-spacing:-0.06em;}.cls-13{letter-spacing:-0.05em;}.cls-14,.cls-19{font-size:31.58px;}.cls-15{letter-spacing:-0.2em;}.cls-16{letter-spacing:-0.08em;}.cls-17{letter-spacing:-0.09em;}.cls-18{letter-spacing:-0.07em;}.cls-19{font-family:Gotham-Bold, Gotham Bold;font-weight:700;}.cls-20{letter-spacing:-0.09em;}.cls-21{letter-spacing:-0.07em;}.cls-22{letter-spacing:-0.07em;}.cls-23{letter-spacing:-0.08em;}.cls-24{fill:#fff;}.cls-25{stroke:#192951;stroke-linecap:round;stroke-width:8px;}.cls-26{fill:#69bbd2;}</style></defs><g id="Layer_2" data-name="Layer 2"><g id="Layer_1-2" data-name="Layer 1"><path class="cls-1" d="M184,104.8a8.48,8.48,0,0,0,.48-8c-2.2-4.79-15.94-34.55-15.94-34.55L137.74,77.81l11.38,23.27M184,104.8c-2.2,3.85-8.05,4-14.24,4H130.59V98l-28.48,28.79,28.48,28.79v-10.8c4.66,0,17.23.07,21.36,0,5.18-.08,9.15.14,12.46-5.65Z"/><path class="cls-2" d="M184,104.8a8.48,8.48,0,0,0,.48-8c-2.2-4.79-15.94-34.55-15.94-34.55L137.74,77.81l17.73,37.56M184,104.8c-2.2,3.85-8.05,4-14.24,4H130.59V98l-28.48,28.79,28.48,28.79v-10.8c4.66,0,17.23.07,21.36,0,5.18-.08,9.15.14,12.46-5.65Z"/><path class="cls-3" d="M184,104.8a8.48,8.48,0,0,0,.48-8c-2.2-4.79-15.94-34.55-15.94-34.55L137.74,77.81l17.73,37.56M184,104.8c-2.2,3.85-8.05,4-14.24,4H130.59V98l-28.48,28.79,28.48,28.79v-10.8c4.66,0,17.23.07,21.36,0,5.18-.08,9.15.14,12.46-5.65Z"/><path class="cls-1" d="M100.31,2.91a8.22,8.22,0,0,0-7,3.51c-3,4.2-21.4,30.41-21.4,30.41l28.45,18.65,14.09-21M100.31,2.91c4.35,0,7.44,6,10.5,11.29L129.5,46.87l-8.27,4.67L159.74,63l9.31-39-8.16,4.68c-2.31-4-9-15.95-11.12-19.43-2.63-4.38-4.16-6.36-10.71-6.36Z"/><path class="cls-2" d="M100.31,2.91a8.22,8.22,0,0,0-7,3.51c-3,4.2-21.4,30.41-21.4,30.41l28.45,18.65,20.93-31.79M100.31,2.91c4.35,0,7.44,6,10.5,11.29L129.5,46.87l-8.27,4.67L159.74,63l9.31-39-8.16,4.68c-2.31-4-9-15.95-11.12-19.43-2.63-4.38-4.16-6.36-10.71-6.36Z"/><path class="cls-3" d="M100.31,2.91a8.22,8.22,0,0,0-7,3.51c-3,4.2-21.4,30.41-21.4,30.41l28.45,18.65,20.93-31.79M100.31,2.91c4.35,0,7.44,6,10.5,11.29L129.5,46.87l-8.27,4.67L159.74,63l9.31-39-8.16,4.68c-2.31-4-9-15.95-11.12-19.43-2.63-4.38-4.16-6.36-10.71-6.36Z"/><path class="cls-1" d="M64,131.93a15.41,15.41,0,0,0,13.54,7.69h31.71V104.57H84.63M64,131.93c-2.17-3.75,1.52-9.41,4.58-14.69L87.71,84.8l8.2,4.79-9.3-38.9L48.05,62.16l8.15,4.69c-2.3,4-9.37,15.75-11.36,19.3-2.49,4.45-3.45,6.76-.17,12.4Z"/><path class="cls-2" d="M64,131.93a15.41,15.41,0,0,0,13.54,7.69h31.71V104.57L67,104.7m-3,27.23c-2.17-3.75,1.52-9.41,4.58-14.69L87.71,84.8l8.2,4.79-9.3-38.9L48.05,62.16l8.15,4.69c-2.3,4-9.37,15.75-11.36,19.3-2.49,4.45-3.45,6.76-.17,12.4Z"/><path class="cls-3" d="M64,131.93a15.41,15.41,0,0,0,13.54,7.69h31.71V104.57L67,104.7m-3,27.23c-2.17-3.75,1.52-9.41,4.58-14.69L87.71,84.8l8.2,4.79-9.3-38.9L48.05,62.16l8.15,4.69c-2.3,4-9.37,15.75-11.36,19.3-2.49,4.45-3.45,6.76-.17,12.4Z"/><text class="cls-4" transform="translate(0 196)"><tspan class="cls-5">M</tspan><tspan class="cls-6" x="12.06" y="0">inn</tspan><tspan class="cls-7" x="31.42" y="0">e</tspan><tspan class="cls-8" x="38.7" y="0">sot</tspan><tspan class="cls-7" x="56.99" y="0">a</tspan><tspan class="cls-8" x="63.97" y="0" xml:space="preserve"> Ch</tspan><tspan class="cls-9" x="83.38" y="0">a</tspan><tspan class="cls-6" x="90.36" y="0">mber </tspan><tspan class="cls-7" x="125.83" y="0">o</tspan><tspan class="cls-8" x="133.87" y="0">f </tspan><tspan class="cls-10" x="140.59" y="0">C</tspan><tspan class="cls-11" x="148.97" y="0">omm</tspan><tspan class="cls-7" x="182.12" y="0">e</tspan><tspan class="cls-12" x="189.39" y="0">r</tspan><tspan class="cls-13" x="193.57" y="0">c</tspan><tspan x="199.78" y="0">e</tspan></text><text class="cls-14" transform="translate(30.03 229.14)"><tspan class="cls-15">W</tspan><tspan class="cls-16" x="20.43" y="0">A</tspan><tspan class="cls-17" x="37.14" y="0">S</tspan><tspan class="cls-18" x="50.02" y="0">T</tspan><tspan x="63.54" y="0">E</tspan></text><text class="cls-19" transform="translate(132.54 229.14)"><tspan class="cls-20"> </tspan><tspan class="cls-21" x="3.88" y="0">W</tspan><tspan class="cls-22" x="28.42" y="0">I</tspan><tspan class="cls-23" x="33.76" y="0">S</tspan><tspan x="46.83" y="0">E</tspan></text><path class="cls-24" d="M75.71,118.17V166H178.27c.95.08.95-.51,1.27-1.39s.08-.09.11-1.39l-.12-1.07c-.87-7.13-4.25-9.62-8.15-12.48-1-.73-2-1.5-3.11-2.38a7,7,0,0,1-1.42-2.32c-.82-1.75-1.84-3.92-4.39-5-8.59-4.06-13.59-8.31-13.37-11.38l.64-8.85.22-.24a7.69,7.69,0,0,0,1.89-3.06,2,2,0,0,0-.5-2.1,34.93,34.93,0,0,1-4.35-5.13c.32-2.76,2.23-4.33,4.44-6.13s5-4.12,5.32-8l.93-13c1.22-2.41,3.47-3.61,6.06-5a29,29,0,0,0,5.18-3.28,45.6,45.6,0,0,0,6.5-6.9,27.48,27.48,0,0,1,7.3-7,41.92,41.92,0,0,1,7.06-3.17c5.34-2,10.87-4.14,13.08-9.57a2.06,2.06,0,0,0-.45-2.22,2.18,2.18,0,0,0-2.25-.53,8.05,8.05,0,0,0-1.24.55,2.61,2.61,0,0,1-1.27.41h0a18.29,18.29,0,0,1-4.27-.91,16.23,16.23,0,0,0-4.72-.9q-.65,0-1.32.06c-.85-.1-1.58-.23-2.3-.37a21,21,0,0,0-2.38-.35c-1.71-.13-2.14-.42-2.19-.64a2.18,2.18,0,0,0-2.2-1.57c-2.7.13-4.56,1.51-6.2,2.72s-3,2.23-5.14,2.07c-1.26-.1-2.17-1-3.55-2.43-1.62-1.69-3.64-3.8-7.07-4.06a4.73,4.73,0,0,0-3.5,1l-.13.09c-1.26-.16-2.95-2.22-4.45-4-2.23-2.72-4.53-5.53-7.81-5.78a7.33,7.33,0,0,0-6.72,3c-1,1.11-1.32,1.39-2.13,1.38h-.21c-1.9-.19-16.16-4.38-18.42-5.86A12.76,12.76,0,0,1,112,24c-.34-4.37-.81-10.34-8.58-11.72a2.18,2.18,0,0,0-1.77.47,2,2,0,0,0-.73,1.63l.27,8.15c-4.84-.1-20.38-.38-35.43-1a2.16,2.16,0,0,0-1.83.88,2,2,0,0,0-.21,2c1.78,4.2,1.64,7.56,1.45,11.82a62.43,62.43,0,0,0,.12,9.28,29.56,29.56,0,0,0,2.08,7.88A23.41,23.41,0,0,1,69.11,60c.09,1.42,0,2.75,0,4a21.48,21.48,0,0,0,.69,7.5l-.62,8.63a2,2,0,0,0,.09.77c.44,1.39,1.07,3,1.73,4.65a3.16,3.16,0,0,1-.52,2.1,4.63,4.63,0,0,0-.8,2.18c0,.46-.63,1-1.52,1.75-1.29,1.08-3,2.57-3.23,5.12-.19,2.71,2.3,5.73,6.13,10Z"/><path class="cls-25" d="M75.71,118.17V166H178.27c.95.08.95-.51,1.27-1.39s.08-.09.11-1.39l-.12-1.07c-.87-7.13-4.25-9.62-8.15-12.48-1-.73-2-1.5-3.11-2.38a7,7,0,0,1-1.42-2.32c-.82-1.75-1.84-3.92-4.39-5-8.59-4.06-13.59-8.31-13.37-11.38l.64-8.85.22-.24a7.69,7.69,0,0,0,1.89-3.06,2,2,0,0,0-.5-2.1,34.93,34.93,0,0,1-4.35-5.13c.32-2.76,2.23-4.33,4.44-6.13s5-4.12,5.32-8l.93-13c1.22-2.41,3.47-3.61,6.06-5a29,29,0,0,0,5.18-3.28,45.6,45.6,0,0,0,6.5-6.9,27.48,27.48,0,0,1,7.3-7,41.92,41.92,0,0,1,7.06-3.17c5.34-2,10.87-4.14,13.08-9.57a2.06,2.06,0,0,0-.45-2.22,2.18,2.18,0,0,0-2.25-.53,8.05,8.05,0,0,0-1.24.55,2.61,2.61,0,0,1-1.27.41h0a18.29,18.29,0,0,1-4.27-.91,16.23,16.23,0,0,0-4.72-.9q-.65,0-1.32.06c-.85-.1-1.58-.23-2.3-.37a21,21,0,0,0-2.38-.35c-1.71-.13-2.14-.42-2.19-.64a2.18,2.18,0,0,0-2.2-1.57c-2.7.13-4.56,1.51-6.2,2.72s-3,2.23-5.14,2.07c-1.26-.1-2.17-1-3.55-2.43-1.62-1.69-3.64-3.8-7.07-4.06a4.73,4.73,0,0,0-3.5,1l-.13.09c-1.26-.16-2.95-2.22-4.45-4-2.23-2.72-4.53-5.53-7.81-5.78a7.33,7.33,0,0,0-6.72,3c-1,1.11-1.32,1.39-2.13,1.38h-.21c-1.9-.19-16.16-4.38-18.42-5.86A12.76,12.76,0,0,1,112,24c-.34-4.37-.81-10.34-8.58-11.72a2.18,2.18,0,0,0-1.77.47,2,2,0,0,0-.73,1.63l.27,8.15c-4.84-.1-20.38-.38-35.43-1a2.16,2.16,0,0,0-1.83.88,2,2,0,0,0-.21,2c1.78,4.2,1.64,7.56,1.45,11.82a62.43,62.43,0,0,0,.12,9.28,29.56,29.56,0,0,0,2.08,7.88A23.41,23.41,0,0,1,69.11,60c.09,1.42,0,2.75,0,4a21.48,21.48,0,0,0,.69,7.5l-.62,8.63a2,2,0,0,0,.09.77c.44,1.39,1.07,3,1.73,4.65a3.16,3.16,0,0,1-.52,2.1,4.63,4.63,0,0,0-.8,2.18c0,.46-.63,1-1.52,1.75-1.29,1.08-3,2.57-3.23,5.12-.19,2.71,2.3,5.73,6.13,10Z"/><path class="cls-26" d="M100.31,2.91c4.35,0,7.44,6,10.5,11.29L129.5,46.87l-8.27,4.67L159.74,63l9.31-39-8.16,4.68c-2.31-4-9-15.95-11.12-19.43-2.63-4.38-4.16-6.36-10.71-6.36Z"/><path class="cls-3" d="M100.31,2.91c4.35,0,7.44,6,10.5,11.29L129.5,46.87l-8.27,4.67L159.74,63l9.31-39-8.16,4.68c-2.31-4-9-15.95-11.12-19.43-2.63-4.38-4.16-6.36-10.71-6.36Z"/><path class="cls-26" d="M183.87,104.8c-2.2,3.85-8.05,4-14.24,4H130.47V98L102,126.75l28.48,28.79v-10.8c4.66,0,17.23.07,21.36,0,5.18-.08,9.15.14,12.46-5.65Z"/><path class="cls-3" d="M183.87,104.8c-2.2,3.85-8.05,4-14.24,4H130.47V98L102,126.75l28.48,28.79v-10.8c4.66,0,17.23.07,21.36,0,5.18-.08,9.15.14,12.46-5.65Z"/><path class="cls-26" d="M63.81,132c-2.17-3.75,1.52-9.41,4.58-14.69L87.48,84.84l8.21,4.79-9.3-38.9L47.83,62.2,56,66.89c-2.31,4-9.37,15.75-11.36,19.3-2.49,4.45-3.45,6.76-.18,12.4Z"/><path class="cls-3" d="M63.81,132c-2.17-3.75,1.52-9.41,4.58-14.69L87.48,84.84l8.21,4.79-9.3-38.9L47.83,62.2,56,66.89c-2.31,4-9.37,15.75-11.36,19.3-2.49,4.45-3.45,6.76-.18,12.4Z"/></g></g></svg>